<svg width="303.15199890136716" height="90" viewBox="0 0 303.15199890136716 90" class="css-1j8o68f"><defs id="SvgjsDefs1001"><linearGradient id="SvgjsLinearGradient1013"><stop id="SvgjsStop1014" stop-color="#fbb040" offset="0"></stop><stop id="SvgjsStop1015" stop-color="#f9ed32" offset="1"></stop></linearGradient><linearGradient id="SvgjsLinearGradient1016"><stop id="SvgjsStop1017" stop-color="#834f2a" offset="0"></stop><stop id="SvgjsStop1018" stop-color="#dba173" offset="0.5"></stop><stop id="SvgjsStop1019" stop-color=" #834F2A" offset="1"></stop></linearGradient><linearGradient id="SvgjsLinearGradient1020"><stop id="SvgjsStop1021" stop-color="#834f2a" offset="0"></stop><stop id="SvgjsStop1022" stop-color="#dba173" offset="0.5"></stop><stop id="SvgjsStop1023" stop-color=" #834F2A" offset="1"></stop></linearGradient></defs><g id="SvgjsG1007" featurekey="5TMTKC-0" transform="matrix(2.8125,0,0,2.8125,0,0)" fill="url(#SvgjsLinearGradient1013)"><g xmlns="http://www.w3.org/2000/svg" display="none"><rect x="-247.333" y="-102.651" display="inline" fill="url(#SvgjsLinearGradient1013)" width="473.333" height="236"></rect></g><g xmlns="http://www.w3.org/2000/svg"><g><path d="M16,0C7.163,0,0,7.163,0,16s7.163,16,16,16s16-7.163,16-16S24.837,0,16,0z M16,31C7.729,31,1,24.271,1,16    C1,7.729,7.729,1,16,1c8.271,0,15,6.729,15,15C31,24.271,24.271,31,16,31z"></path><path d="M16.57,8.214l-7.716,7.717l7.716,7.716v4.174h4.576v-4.575h-3.775l0.106-0.106l-7.208-7.208l7.174-7.175h3.703V4.18H16.57    V8.214z M17.57,24.244h2.576v2.575H17.57V24.244z M17.57,5.18h2.576v2.575H17.57V5.18z"></path></g></g><g xmlns="http://www.w3.org/2000/svg" display="none"><g display="inline"><path d="M16,0C7.163,0,0,7.163,0,16s7.163,16,16,16s16-7.163,16-16S24.837,0,16,0z M16,30C8.28,30,2,23.72,2,16    C2,8.28,8.28,2,16,2c7.72,0,14,6.28,14,14C30,23.72,23.72,30,16,30z"></path><polygon points="16.57,7.198 7.837,15.932 16.57,24.664 16.57,27.82 21.146,27.82 21.146,23.244 17.979,23.244 10.665,15.932     17.841,8.756 21.146,8.756 21.146,4.18 16.57,4.18   "></polygon></g></g><g xmlns="http://www.w3.org/2000/svg" display="none"><g display="inline"><rect x="17.57" y="5.18" width="2.576" height="2.575"></rect><path d="M16,0C7.163,0,0,7.163,0,16s7.163,16,16,16s16-7.163,16-16S24.837,0,16,0z M21.146,8.756h-3.703l-7.174,7.175l7.208,7.208    l-0.106,0.106h3.775v4.575H16.57v-4.174l-7.716-7.716l7.716-7.717V4.18h4.576V8.756z"></path><rect x="17.57" y="24.244" width="2.576" height="2.575"></rect></g></g><g xmlns="http://www.w3.org/2000/svg" display="none"><g display="inline"><path d="M16,0C7.163,0,0,7.163,0,16s7.163,16,16,16s16-7.163,16-16S24.837,0,16,0z M16,31.5C7.453,31.5,0.5,24.547,0.5,16    C0.5,7.453,7.453,0.5,16,0.5c8.547,0,15.5,6.953,15.5,15.5C31.5,24.547,24.547,31.5,16,31.5z"></path><path d="M16.57,8.568l-7.362,7.363l7.362,7.362v4.527h4.576v-4.575h-3.917l-7.314-7.314l7.174-7.175h4.056V4.18H16.57V8.568z     M20.646,27.32H17.07v-3.575h3.576V27.32z M17.07,4.68h3.576v3.575H17.07V4.68z"></path></g></g></g><g id="SvgjsG1008" featurekey="nameLeftFeature-0" transform="matrix(2.4861879239010025,0,0,2.4861879239010025,105.027624152198,13.92265095123747)" fill="url(#SvgjsLinearGradient1016)"><path d="M2 10.26 c0 -3 1.8 -5 4.5 -5 s4.5 2 4.5 5 l-1 0 c0 -2.4 -1.4 -4.02 -3.5 -4.02 s-3.5 1.62 -3.5 4.02 l0 4.5 c0 2.4 1.4 4 3.5 4 c0.96 0 1.74 -0.36 2.34 -0.96 l0.76 0.74 c-0.8 0.76 -1.84 1.2 -3.1 1.2 c-2.7 0 -4.5 -1.98 -4.5 -4.98 l0 -4.5 z M6.5 7.74 c-0.5 0 -0.9 0.16 -1.26 0.46 l-0.74 -0.7 c0.56 -0.5 1.2 -0.74 2 -0.74 c1.8 0 3 1.4 3 3.5 l-1 0 c0 -1.5 -0.8 -2.52 -2 -2.52 z M6.5 17.259999999999998 c1.2 0 2 -1 2 -2.5 l1 0 c0 2.1 -1.2 3.48 -3 3.48 s-3 -1.38 -3 -3.48 l0 -4.5 c0 -0.96 0.24 -1.76 0.7 -2.36 l0.7 0.7 c-0.26 0.46 -0.4 1 -0.4 1.66 l0 4.5 c0 1.5 0.8 2.5 2 2.5 z M11 14.76 c0 1.38 -0.4 2.54 -1.06 3.4 l-0.74 -0.7 c0.5 -0.72 0.8 -1.62 0.8 -2.7 l1 0 z M18.6 19.5 l-4.66 -14 l1.06 0 l3.6 10.8 l2.5 -7.54 l3.56 10.74 l-1.06 0 l-2.5 -7.56 z M16.56 5.5 l2.54 7.7 l-0.5 1.56 l-3.1 -9.26 l1.06 0 z M25.14 16.3 l3.6 -10.8 l1.06 0 l-4.66 14 l-3.54 -10.74 l1 0 z M27.2 5.5 l1.06 0 l-3.12 9.26 l-0.48 -1.56 z M20.16 19.5 l-1.06 0 l2 -6 l0.5 1.6 z M39.74 11.5 l0 1 l-5.5 0 l0 7 l-1 0 l0 -14 l7.5 0 l0 1 l-6.5 0 l0 5 l5.5 0 z M40.74 8 l-4.6 0 l-1.06 -1 l5.66 0 l0 1 z M34.74 7.359999999999999 l1 0.98 l0 2.66 l-1 0 l0 -3.64 z M39.74 14 l-3.6 0 l-1.06 -1 l4.66 0 l0 1 z M34.74 19.5 l0 -6.14 l1 0.98 l0 5.16 l-1 0 z"></path></g><g id="SvgjsG1009" featurekey="nameRightFeature-0" transform="matrix(2.4,0,0,2.4,217.37600059509276,15)" fill="url(#SvgjsLinearGradient1020)"><path d="M4.64 17.759999999999998 l-0.74 2.24 l-3.64 0 l4.98 -15 l2.26 0 l5 15 l-3.66 0 l-0.78 -2.24 l-3.42 0 z M3.6 14.76 l3.04 -9.26 l-1.04 0 l-4.66 14 l1.06 0 l1.26 -3.74 l4.14 0 l-0.36 -1 l-3.44 0 z M7.16 8.7 l3.6 10.8 l1.04 0 l-4.6 -14 l-2.96 8.76 l1.06 0 z M3.94 16.259999999999998 l0.7 1 l3.76 0 l0.74 2.24 l1.1 0 l-3.08 -9.24 l-0.52 1.54 l1.46 4.46 l-4.16 0 z M6.34 12.66 l-0.54 1.6 l1.1 0 z M4.2 17.5 l-0.64 -1 l-1.06 3 l1.06 0 z M17.240000000000002 20 l0 -11.5 l-3.5 0 l0 -3.5 l10.5 0 l0 3.5 l-3.5 0 l0 11.5 l-3.5 0 z M17.740000000000002 19.5 l1 0 l0 -13 l5 0 l0 -1 l-9.5 0 l0 1 l3.5 0 l0 13 z M17.240000000000002 7 l-3 0 l0 1 l3 0 l0 -1 z M23.740000000000002 7 l-4.14 0 l0.98 1 l3.16 0 l0 -1 z M20.240000000000002 8.4 l-1 -1.04 l0 12.14 l1 0 l0 -11.1 z M30.740000000000002 14.5 l0 2 l5 0 l0 3.5 l-8.5 0 l0 -15 l8.5 0 l0 3.5 l-5 0 l0 2.5 l4 0 l0 3.5 l-4 0 z M27.740000000000002 5.5 l0 12.5 l7.5 0 l0 -1 l-6.5 0 l0 -4.5 l5.5 0 l0 -1 l-5.5 0 l0 -5 l6.5 0 l0 -1 l-7.5 0 z M35.24 7 l-5.66 0 l1.06 1 l4.6 0 l0 -1 z M29.240000000000002 11 l1 0 l0 -2.66 l-1 -0.98 l0 3.64 z M34.24 13 l-4.66 0 l1.06 1 l3.6 0 l0 -1 z M29.240000000000002 16.5 l1 0 l0 -2.16 l-1 -0.98 l0 3.14 z M35.24 18.5 l-7.5 0 l0 1 l7.5 0 l0 -1 z"></path></g></svg>