<?xml version="1.0" standalone="no"?>
<!DOCTYPE svg PUBLIC "-//W3C//DTD SVG 20010904//EN"
 "http://www.w3.org/TR/2001/REC-SVG-20010904/DTD/svg10.dtd">
<svg  version="1.0" xmlns="http://www.w3.org/2000/svg" width="410.9721367576924" height="405.89843750000006" viewBox="0 0 400.25387585293487 395.31249999999994" class="css-1j8o68f"><defs id="SvgjsDefs3732"></defs><g id="SvgjsG3733" featurekey="rootContainer" transform="matrix(3.794480111758125,0,0,3.794480111758125,-0.14235411778434104,0.10878862087511433)" fill="#dfedf4"><path xmlns="http://www.w3.org/2000/svg" d="M104.6 41.3a52.2 52.2 0 0 0-3.5-11.2A51.1 51.1 0 0 0 44.3 1a49.6 49.6 0 0 0-5.7 1.5 49.1 49.1 0 0 0-7.9 2.7A51.6 51.6 0 0 0 6.3 77a53.7 53.7 0 0 0 4.1 6.4 57 57 0 0 0 5 5.7 51.7 51.7 0 0 0 55.3 11.5l3.3-1.4 3-1.5a50.9 50.9 0 0 0 5.8-3.8l2.7-2.1 1.2-1.1 1.1-.9 2-1.8.7-.6.6-.7 1.8-2a48.5 48.5 0 0 0 5.9-8.3 50.4 50.4 0 0 0 5.6-14.7 51.6 51.6 0 0 0 .2-20.4zM87.1 88.6l-1.2 1.1-1.2 1.1-2.6 2.1a49.5 49.5 0 0 1-5.7 3.6l-3 1.5-3.2 1.3-4.9 1.6h-.5a50.9 50.9 0 0 1-20.3.1 51.8 51.8 0 0 1-11.1-3.6A50.5 50.5 0 0 1 22.9 91a52 52 0 0 1-9.1-9.4 50.3 50.3 0 0 1-3.7-5.7c-.6-1-1.1-2-1.6-3.1s-1-2.1-1.3-3.2a50.6 50.6 0 0 1 8.6-50.8l.8-.8.5-.6.6-.6 1.2-1.1 2.4-2.1A50.5 50.5 0 0 1 62.4 3.2a48.5 48.5 0 0 1 14.7 5.2 47 47 0 0 1 8.3 5.8l2 1.8.7.6.6.7 1.8 2a49.7 49.7 0 0 1 11.3 22.9 50.8 50.8 0 0 1-.1 20.2 51.6 51.6 0 0 1-3.6 11 50.2 50.2 0 0 1-6.6 10.5l-2.1 2.4zm-44.9 13a50.1 50.1 0 0 1-13.7-5 51.8 51.8 0 0 1-6.2-4 55.2 55.2 0 0 1-5.5-4.8 49.9 49.9 0 0 1-11-53.2c.4-1.1.9-2.1 1.3-3.1l.6-1.3a50.2 50.2 0 0 0-3.4 11 51.3 51.3 0 0 0 2.4 28.5c.4 1.1.9 2.2 1.4 3.2s1 2.1 1.6 3.1a50.6 50.6 0 0 0 3.7 5.8 51.5 51.5 0 0 0 9.2 9.5 50.9 50.9 0 0 0 10.7 6.5 51 51 0 0 0 28.7 3.9 50.3 50.3 0 0 1-19.8-.1zm61.9-39.9a50.2 50.2 0 0 1-5.5 14.7 48.4 48.4 0 0 1-5.8 8.3l-1.8 2-.6.7-.7.6-1.9 1.7h.2l2.3-2.4 2.1-2.5A51.3 51.3 0 0 0 98.9 74a51.4 51.4 0 0 0 3.2-31.6 49.6 49.6 0 0 0-2.5-8.2 49.4 49.4 0 0 0-3.1-6.5 48.7 48.7 0 0 0-5.9-8.3l-1.8-2-.6-.7-.7-.6-2-1.8A49.9 49.9 0 0 0 77.3 8a49.3 49.3 0 0 0-6.5-3.2 49.8 49.8 0 0 0-8.2-2.6A52.2 52.2 0 0 0 49.9 1a50.8 50.8 0 0 1 22.7 3.2l3.2 1.3 3.1 1.6a50.1 50.1 0 0 1 5.7 3.7l2.6 2.1 1.2 1.1 1.2 1.1 2.3 2.3 2.1 2.4a50.4 50.4 0 0 1 6.5 10.5 51.6 51.6 0 0 1 3.6 11 51.1 51.1 0 0 1 0 20.3z"></path></g><g id="SvgjsG3734" featurekey="symbolFeature-0" transform="matrix(0.76103500761035,0,0,0.76103500761035,165.74733730647117,60.32267832066552)" fill="#3a88a2"><path xmlns="http://www.w3.org/2000/svg" d="M14.03,50.03l13.5,13.5l13.5-13.5l-13.5-13.5L14.03,50.03 M27.53,32.03l18,18l-18,18l-18-18L27.53,32.03" style="fillRule: evenodd; clipRule: evenodd;"></path><path xmlns="http://www.w3.org/2000/svg" d="M27.53,54.53l4.5-4.5l-4.5-4.5l-4.5,4.5L27.53,54.53 M18.53,50.03l9-9l9,9l-9,9L18.53,50.03" style="fillRule: evenodd; clipRule: evenodd;"></path><path xmlns="http://www.w3.org/2000/svg" d="M68.03,72.53l-18-18l-18,18l18,18L68.03,72.53 M72.53,72.53l-22.5,22.5l-22.5-22.5l22.5-22.5L72.53,72.53" style="fillRule: evenodd; clipRule: evenodd;"></path><path xmlns="http://www.w3.org/2000/svg" d="M59.03,72.53l-9-9l-9,9l9,9L59.03,72.53 M63.53,72.53l-13.5,13.5l-13.5-13.5l13.5-13.5L63.53,72.53" style="fillRule: evenodd; clipRule: evenodd;"></path><polyline xmlns="http://www.w3.org/2000/svg" points="54.53,72.53 50.03,77.03 45.53,72.53 50.03,68.03 54.53,72.53 " style="fillRule: evenodd; clipRule: evenodd;"></polyline><path xmlns="http://www.w3.org/2000/svg" d="M41.03,27.53l9,9l9-9l-9-9L41.03,27.53 M36.53,27.53l13.5-13.5l13.5,13.5l-13.5,13.5L36.53,27.53" style="fillRule: evenodd; clipRule: evenodd;"></path><polyline xmlns="http://www.w3.org/2000/svg" points="45.53,27.53 50.03,23.03 54.53,27.53 50.03,32.03 45.53,27.53 " style="fillRule: evenodd; clipRule: evenodd;"></polyline><path xmlns="http://www.w3.org/2000/svg" d="M72.53,45.53l-4.5,4.5l4.5,4.5l4.5-4.5L72.53,45.53 M81.53,50.03l-9,9l-9-9l9-9L81.53,50.03" style="fillRule: evenodd; clipRule: evenodd;"></path></g><g id="SvgjsG3735" featurekey="nameFeature-0" transform="matrix(6.1154598825831705,0,0,6.1154598825831705,102.76786714617288,79.6122651893332)" fill="#532e8f"><path d="M21.449 25.622 l8.5512 -0.000039062 l0 0.3784 c0 7.72 -6.2804 14 -14 14 s-14 -6.28 -14 -14 s6.2804 -14 14 -14 c3.0571 0 5.9616 0.96756 8.4 2.7988 l-0.4546 0.60512 c-2.3057 -1.7317 -5.0532 -2.6472 -7.9448 -2.6472 c-4.418 0 -8.3352 2.177 -10.742 5.512 c1.6547 2.1125 2.5647 4.7376 2.5647 7.4292 c0 2.8163 -0.99208 5.554 -2.7922 7.7136 c2.3835 3.5159 6.4108 5.8312 10.97 5.8312 c7.176 0 13.037 -5.7364 13.238 -12.865 l-7.7891 0 l0 -0.75676 z M2.7567 26 c0 2.4578 0.67556 4.76 1.8473 6.7352 c1.5882 -1.993 2.462 -4.4796 2.462 -7.0368 c0 -2.4399 -0.805 -4.8172 -2.2598 -6.7616 c-1.2958 2.0459 -2.0494 4.4676 -2.0494 7.0632 z"></path></g></svg>
