<?xml version="1.0" encoding="iso-8859-1"?>
<svg xmlns="http://www.w3.org/2000/svg" width="90" height="90" viewBox="0 0 90 90" class="css-1j8o68f"><defs id="SvgjsDefs2483"><linearGradient id="SvgjsLinearGradient2490"><stop id="SvgjsStop2491" stop-color="#fbb040" offset="0"></stop><stop id="SvgjsStop2492" stop-color="#f9ed32" offset="1"></stop></linearGradient><linearGradient id="SvgjsLinearGradient2493"><stop id="SvgjsStop2494" stop-color="#834f2a" offset="0"></stop><stop id="SvgjsStop2495" stop-color="#dba173" offset="0.5"></stop><stop id="SvgjsStop2496" stop-color=" #834F2A" offset="1"></stop></linearGradient><linearGradient id="SvgjsLinearGradient2497"><stop id="SvgjsStop2498" stop-color="#834f2a" offset="0"></stop><stop id="SvgjsStop2499" stop-color="#dba173" offset="0.5"></stop><stop id="SvgjsStop2500" stop-color=" #834F2A" offset="1"></stop></linearGradient></defs><g id="SvgjsG2484" featurekey="5TMTKC-0" transform="matrix(2.8125,0,0,2.8125,0,0)" fill="url(#SvgjsLinearGradient2490)"><g xmlns="http://www.w3.org/2000/svg" display="none"><rect x="-247.333" y="-102.651" display="inline" fill="url(#SvgjsLinearGradient2490)" width="473.333" height="236"></rect></g><g xmlns="http://www.w3.org/2000/svg"><g><path d="M16,0C7.163,0,0,7.163,0,16s7.163,16,16,16s16-7.163,16-16S24.837,0,16,0z M16,31C7.729,31,1,24.271,1,16    C1,7.729,7.729,1,16,1c8.271,0,15,6.729,15,15C31,24.271,24.271,31,16,31z"></path><path d="M16.57,8.214l-7.716,7.717l7.716,7.716v4.174h4.576v-4.575h-3.775l0.106-0.106l-7.208-7.208l7.174-7.175h3.703V4.18H16.57    V8.214z M17.57,24.244h2.576v2.575H17.57V24.244z M17.57,5.18h2.576v2.575H17.57V5.18z"></path></g></g><g xmlns="http://www.w3.org/2000/svg" display="none"><g display="inline"><path d="M16,0C7.163,0,0,7.163,0,16s7.163,16,16,16s16-7.163,16-16S24.837,0,16,0z M16,30C8.28,30,2,23.72,2,16    C2,8.28,8.28,2,16,2c7.72,0,14,6.28,14,14C30,23.72,23.72,30,16,30z"></path><polygon points="16.57,7.198 7.837,15.932 16.57,24.664 16.57,27.82 21.146,27.82 21.146,23.244 17.979,23.244 10.665,15.932     17.841,8.756 21.146,8.756 21.146,4.18 16.57,4.18   "></polygon></g></g><g xmlns="http://www.w3.org/2000/svg" display="none"><g display="inline"><rect x="17.57" y="5.18" width="2.576" height="2.575"></rect><path d="M16,0C7.163,0,0,7.163,0,16s7.163,16,16,16s16-7.163,16-16S24.837,0,16,0z M21.146,8.756h-3.703l-7.174,7.175l7.208,7.208    l-0.106,0.106h3.775v4.575H16.57v-4.174l-7.716-7.716l7.716-7.717V4.18h4.576V8.756z"></path><rect x="17.57" y="24.244" width="2.576" height="2.575"></rect></g></g><g xmlns="http://www.w3.org/2000/svg" display="none"><g display="inline"><path d="M16,0C7.163,0,0,7.163,0,16s7.163,16,16,16s16-7.163,16-16S24.837,0,16,0z M16,31.5C7.453,31.5,0.5,24.547,0.5,16    C0.5,7.453,7.453,0.5,16,0.5c8.547,0,15.5,6.953,15.5,15.5C31.5,24.547,24.547,31.5,16,31.5z"></path><path d="M16.57,8.568l-7.362,7.363l7.362,7.362v4.527h4.576v-4.575h-3.917l-7.314-7.314l7.174-7.175h4.056V4.18H16.57V8.568z     M20.646,27.32H17.07v-3.575h3.576V27.32z M17.07,4.68h3.576v3.575H17.07V4.68z"></path></g></g></g></svg>